<svg width="169" height="169" viewBox="0 0 169 169" fill="none" xmlns="http://www.w3.org/2000/svg">
<g clip-path="url(#clip0_6_604)">
<path fill-rule="evenodd" clip-rule="evenodd" d="M169 84.5C169 37.8319 131.168 0 84.5 0C37.8319 0 0 37.8319 0 84.5C0 131.168 37.8319 169 84.5 169C131.168 169 169 131.168 169 84.5ZM73.9375 84.5C73.9375 121.583 76.9235 153.087 81.0768 164.464C80.2926 163.65 79.4449 162.529 78.5504 161.016C76.2084 157.053 74.0076 151.144 72.1242 143.61C68.3674 128.583 66.0156 107.683 66.0156 84.5C66.0156 61.3168 68.3674 40.4171 72.1242 25.3899C74.0076 17.856 76.2084 11.9465 78.5504 7.98406C79.4449 6.47073 80.2926 5.34972 81.0768 4.53644C76.9234 15.9131 73.9375 47.4169 73.9375 84.5ZM90.4496 161.016C89.5551 162.529 88.7074 163.65 87.9232 164.464C92.0765 153.087 95.0625 121.583 95.0625 84.5C95.0625 47.417 92.0765 15.9131 87.9232 4.53642C88.7074 5.3497 89.5551 6.47072 90.4496 7.98406C92.7916 11.9465 94.9924 17.856 96.8758 25.3899C100.633 40.4171 102.984 61.3168 102.984 84.5C102.984 107.683 100.633 128.583 96.8758 143.61C94.9924 151.144 92.7916 157.053 90.4496 161.016ZM76.7858 163.189C75.9059 162.461 75.0237 161.603 74.1417 160.608C70.6412 156.66 67.3682 150.796 64.566 143.323C58.969 128.398 55.4531 107.601 55.4531 84.5C55.4531 61.3988 58.969 40.6022 64.566 25.6767C67.3682 18.2042 70.6412 12.3404 74.1417 8.39224C75.0237 7.39739 75.9059 6.5389 76.7858 5.81116C68.9341 18.1365 63.375 48.7215 63.375 84.5C63.375 120.279 68.9341 150.864 76.7858 163.189ZM92.2142 163.189C93.0941 162.461 93.9763 161.603 94.8583 160.608C98.3588 156.66 101.632 150.796 104.434 143.323C110.031 128.398 113.547 107.601 113.547 84.5C113.547 61.3988 110.031 40.6022 104.434 25.6767C101.632 18.2042 98.3588 12.3404 94.8583 8.39224C93.9763 7.39739 93.0941 6.53889 92.2142 5.81116C100.066 18.1365 105.625 48.7214 105.625 84.5C105.625 120.279 100.066 150.864 92.2142 163.189ZM56.9866 143.07C61.2755 151.647 66.3399 158.027 71.7828 161.92C60.6139 148.855 52.8125 119.107 52.8125 84.5C52.8125 49.8932 60.6139 20.1453 71.7828 7.08038C66.3399 10.973 61.2755 17.3526 56.9866 25.9304C49.5602 40.7832 44.8906 61.487 44.8906 84.5C44.8906 107.513 49.5602 128.217 56.9866 143.07ZM112.013 143.07C107.724 151.647 102.66 158.027 97.2172 161.92C108.386 148.855 116.188 119.107 116.188 84.5C116.188 49.8932 108.386 20.1453 97.2172 7.08038C102.66 10.973 107.724 17.3526 112.013 25.9304C119.44 40.7832 124.109 61.487 124.109 84.5C124.109 107.513 119.44 128.217 112.013 143.07ZM66.2053 160.689C59.9515 156.662 54.2374 150.599 49.3952 142.851C40.1393 128.042 34.3281 107.418 34.3281 84.5C34.3281 61.5817 40.1393 40.9584 49.3952 26.149C54.2374 18.4015 59.9515 12.3382 66.2052 8.31108C52.0323 21.9489 42.25 50.9397 42.25 84.5C42.25 118.06 52.0323 147.051 66.2053 160.689ZM102.795 160.689C109.049 156.662 114.763 150.599 119.605 142.851C128.861 128.042 134.672 107.418 134.672 84.5C134.672 61.5817 128.861 40.9584 119.605 26.149C114.763 18.4015 109.049 12.3382 102.795 8.31107C116.968 21.9489 126.75 50.9397 126.75 84.5C126.75 118.06 116.968 147.051 102.795 160.689ZM41.7996 142.666C47.0863 149.715 53.2884 155.427 60.1168 159.474C43.2221 145.38 31.6875 117.095 31.6875 84.5C31.6875 51.9049 43.2221 23.6203 60.1168 9.52562C53.2884 13.5734 47.0863 19.2849 41.7996 26.3339C30.7055 41.126 23.7656 61.6821 23.7656 84.5C23.7656 107.318 30.7055 127.874 41.7996 142.666ZM127.2 142.666C121.914 149.715 115.712 155.427 108.883 159.474C125.778 145.38 137.312 117.095 137.312 84.5C137.312 51.9049 125.778 23.6202 108.883 9.52559C115.712 13.5734 121.914 19.2849 127.2 26.3339C138.294 41.126 145.234 61.6821 145.234 84.5C145.234 107.318 138.294 127.874 127.2 142.666ZM53.5032 158.22C29.7536 145.028 13.2031 117.137 13.2031 84.5C13.2031 51.8631 29.7536 23.9718 53.5031 10.7796C34.1801 25.2545 21.125 52.8445 21.125 84.5C21.125 116.156 34.1801 143.746 53.5032 158.22ZM115.497 158.22C139.246 145.028 155.797 117.137 155.797 84.5C155.797 51.8631 139.246 23.9717 115.497 10.7796C134.82 25.2545 147.875 52.8445 147.875 84.5C147.875 116.156 134.82 143.746 115.497 158.22ZM2.64062 84.5C2.64062 116.051 20.4903 143.433 46.6422 157.098C25.0335 142.349 10.5625 115.356 10.5625 84.5C10.5625 53.6443 25.0335 26.6514 46.6422 11.9018C20.4903 25.5672 2.64062 52.9491 2.64062 84.5ZM166.359 84.5C166.359 116.051 148.51 143.433 122.358 157.098C143.967 142.349 158.438 115.356 158.438 84.5C158.438 53.6443 143.967 26.6514 122.358 11.9018C148.51 25.5672 166.359 52.9491 166.359 84.5ZM89.3486 143.923C91.2426 128.77 92.4219 107.76 92.4219 84.5C92.4219 61.24 91.2426 40.2296 89.3486 25.077C88.3992 17.4822 87.2823 11.4604 86.0791 7.38882C85.9923 7.09532 85.906 6.81509 85.8203 6.5479V162.452C85.906 162.185 85.9923 161.905 86.0791 161.611C87.2823 157.54 88.3992 151.518 89.3486 143.923ZM83.1797 6.5479V162.452C83.094 162.185 83.0077 161.905 82.9209 161.611C81.7177 157.54 80.6008 151.518 79.6514 143.923C77.7573 128.77 76.5781 107.76 76.5781 84.5C76.5781 61.24 77.7573 40.2296 79.6514 25.077C80.6008 17.4822 81.7177 11.4604 82.9209 7.38882C83.0077 7.09532 83.094 6.81509 83.1797 6.5479Z" fill="url(#paint0_linear_6_604)"/>
</g>
<defs>
<linearGradient id="paint0_linear_6_604" x1="48.8516" y1="7.92188" x2="112.227" y2="174.281" gradientUnits="userSpaceOnUse">
<stop stop-color="white"/>
<stop offset="1" stop-color="white" stop-opacity="0"/>
</linearGradient>
<clipPath id="clip0_6_604">
<rect width="169" height="169" fill="white"/>
</clipPath>
</defs>
</svg>
