<svg width="226" height="50" viewBox="0 0 226 50" fill="none" xmlns="http://www.w3.org/2000/svg">
<path d="M27.081 13.132H20.349C19.992 9.664 17.901 7.981 13.617 7.981C9.639 7.981 7.548 9.409 7.548 11.959C7.548 14.101 9.027 15.325 12.801 16.243C16.626 17.161 20.349 18.079 22.848 19.201C25.806 20.527 28.152 22.618 28.152 27.412C28.152 34.858 22.542 38.173 14.637 38.173C6.273 38.173 0.459 34.45 0.306 26.851H7.14C7.242 30.319 10.149 32.461 14.688 32.461C18.87 32.461 21.267 30.676 21.267 27.667C21.267 25.678 20.247 24.301 16.014 23.383C11.832 22.465 9.129 21.853 6.732 20.782C3.111 19.15 1.071 16.702 1.071 12.418C1.071 6.349 5.202 2.014 13.464 2.014C22.032 2.014 26.826 6.655 27.081 13.132ZM46.0263 37.765V33.685C45.1083 35.929 42.3543 37.255 39.2433 37.255C33.9903 37.255 30.0633 33.685 30.0633 28.177V11.908H36.6933V27.208C36.6933 30.319 38.1213 31.9 40.9263 31.9C43.9353 31.9 46.0263 29.911 46.0263 27.208V11.908H52.6563V37.663C52.6563 44.752 47.5563 48.883 41.1303 48.883C33.7863 48.883 30.0633 44.854 30.0633 38.377H36.2343C36.2343 41.335 37.9683 43.171 41.4363 43.171C43.8333 43.171 46.0263 41.08 46.0263 37.765ZM67.5459 32.257C70.7079 32.257 73.1559 29.299 73.1559 25.066C73.1559 19.609 71.2689 16.906 67.5969 16.906C63.7209 16.906 61.8849 19.507 61.8849 24.658C61.8849 29.146 64.2309 32.257 67.5459 32.257ZM79.4289 37H73.0539L73.0029 33.94C71.4219 36.49 69.0759 37.663 66.0159 37.663C59.6919 37.663 55.1529 32.665 55.1529 24.199C55.1529 16.6 58.9779 11.245 65.4549 11.245C68.5659 11.245 71.0139 12.52 72.9009 15.172V2.728H79.4289V37ZM97.5562 27.463L97.6072 24.709C96.9442 25.372 95.7712 25.729 93.3232 26.188C89.5492 26.902 88.3252 27.973 88.3252 30.115C88.3252 32.002 89.4472 32.92 91.5382 32.92C94.9552 32.92 97.5052 30.421 97.5562 27.463ZM104.237 37H98.0662C97.8622 36.388 97.7092 35.521 97.6582 34.756C96.0772 36.49 93.4252 37.663 90.0592 37.663C84.3472 37.663 81.6952 34.858 81.6952 30.778C81.6952 23.536 86.5402 22.72 93.2212 21.802C96.5362 21.343 97.4542 20.68 97.4542 18.946C97.4542 17.314 95.8222 16.345 93.2212 16.345C90.2122 16.345 88.9882 17.824 88.6822 20.068H82.5112C82.6132 14.866 85.4692 11.245 93.5272 11.245C101.483 11.245 104.237 14.815 104.237 21.139V37Z" fill="#B3B3B3"/>
<path d="M113.281 34.858L110.221 37V6.298C110.221 3.952 109.66 2.779 107.875 1.453V1.045L115.321 0.0249988V14.203C116.902 13.489 118.687 13.03 120.625 13.03C127.816 13.03 132.61 17.824 132.61 25.015C132.61 32.206 127.816 37 120.625 37C117.718 37 115.219 36.235 113.281 34.858ZM120.625 13.795C118.432 13.795 116.596 15.019 115.321 16.957V32.92C116.596 34.96 118.33 36.235 120.625 36.235C124.603 36.235 127.255 31.747 127.255 25.015C127.255 18.283 124.603 13.795 120.625 13.795ZM157.964 19.813L158.066 31.747C158.066 33.94 158.576 35.011 160.055 36.592V37H151.079V36.592C152.609 35.062 152.966 33.94 152.966 31.747L152.864 20.017C152.864 17.824 151.538 15.733 149.141 15.733C146.03 15.733 144.092 18.283 142.664 20.731V31.747C142.664 33.94 143.174 35.011 144.653 36.592V37H135.677V36.592C137.258 35.011 137.564 33.94 137.564 31.747V19.303C137.564 17.059 137.054 15.784 135.218 14.458V14.05L142.664 13.03V19.201C144.653 15.835 147.05 13.03 151.283 13.03C154.751 13.03 157.607 14.611 157.964 18.334C160.004 15.274 162.044 13.03 166.022 13.03C169.796 13.03 172.703 14.968 172.703 18.997C172.703 23.434 172.754 27.31 172.805 31.747C172.805 33.94 173.315 35.011 174.794 36.592V37H165.818V36.592C167.348 35.062 167.705 33.94 167.705 31.747L167.603 20.017C167.603 17.824 166.277 15.733 163.88 15.733C161.177 15.733 159.29 17.722 157.964 19.813ZM197.282 13.591L183.563 36.235H191.06C194.12 36.235 196.058 33.583 197.18 31.492H197.741L196.874 37H177.188V36.643L191.264 13.795H185.297C182.441 13.795 180.452 15.325 178.055 18.436H177.545L178.463 13.03H197.282V13.591ZM218.155 13.03L225.346 14.05V14.458C223.561 15.784 223 16.957 223 19.303V44.752C223 47.098 223.357 48.067 224.887 49.597V50.005H215.911V49.597C217.339 48.067 217.9 47.098 217.9 44.752V35.98C216.319 36.643 214.534 37 212.596 37C205.405 37 200.611 32.206 200.611 25.015C200.611 17.824 205.405 13.03 212.596 13.03C214.585 13.03 216.319 13.591 217.9 14.407L218.155 13.03ZM212.596 36.235C214.789 36.235 216.625 35.215 217.9 33.328V16.753C216.625 14.866 214.789 13.795 212.596 13.795C208.618 13.795 205.966 18.283 205.966 25.015C205.966 31.747 208.618 36.235 212.596 36.235Z" fill="#353535"/>
</svg>
